<?xml version="1.0" standalone="no"?>
<!DOCTYPE svg PUBLIC "-//W3C//DTD SVG 20010904//EN"
 "http://www.w3.org/TR/2001/REC-SVG-20010904/DTD/svg10.dtd">
<svg version="1.0" xmlns="http://www.w3.org/2000/svg"
 width="441.000000pt" height="441.000000pt" viewBox="0 0 441.000000 441.000000"
 preserveAspectRatio="xMidYMid meet">
<metadata>
Created by potrace 1.11, written by Peter Selinger 2001-2013
</metadata>
<g transform="translate(0.000000,441.000000) scale(0.100000,-0.100000)"
fill="#000000" stroke="none">
<path d="M2069 4366 c-2 -2 -43 -7 -90 -10 -244 -18 -534 -102 -781 -228 -118
-60 -270 -153 -276 -169 -2 -5 -8 -9 -14 -9 -31 0 -299 -246 -394 -360 -30
-36 -60 -72 -68 -80 -7 -8 -47 -64 -87 -125 -261 -389 -393 -898 -349 -1345 6
-63 11 -122 12 -130 1 -29 17 -108 46 -230 52 -215 160 -460 290 -654 41 -61
83 -119 93 -129 10 -10 19 -22 19 -28 0 -10 246 -259 310 -314 65 -56 118 -95
128 -95 6 0 12 -4 14 -8 4 -11 94 -72 106 -72 6 0 12 -3 14 -7 10 -25 273
-152 419 -203 132 -47 366 -106 376 -96 3 3 13 1 22 -4 26 -13 180 -24 341
-24 176 1 282 9 386 30 44 8 88 17 99 18 54 9 293 79 320 95 6 3 16 6 24 8 19
2 318 151 333 166 7 7 29 21 48 31 31 17 167 114 196 141 178 157 327 310 339
348 4 9 10 17 15 17 7 0 102 140 168 245 16 26 122 243 122 250 0 3 16 46 35
96 20 49 33 94 30 99 -3 5 -1 11 4 14 17 11 66 249 79 386 9 100 9 334 -1 445
-18 200 -93 467 -191 680 -41 89 -147 270 -183 311 -13 15 -23 30 -23 34 0 3
-12 21 -27 38 -16 17 -40 49 -56 69 -28 39 -215 226 -301 301 -85 74 -296 207
-436 276 -240 117 -514 193 -770 215 -111 9 -334 14 -341 7z"/>
</g>
</svg>
